<svg id="b898880a-bf39-4c28-97e7-116d8c216565" data-name="Ebene 1" xmlns="http://www.w3.org/2000/svg" width="135.86139" height="41" viewBox="0 0 135.86139 41">
  <defs>
    <style>
      .c3c9b207-93a3-4e55-964e-9bd97fb555b3 {
        fill: none;
      }

      .\31 66b73ff-e487-4e50-bd99-2703395be93b {
        fill: #004f73;
      }

      .d9eb2d5e-81f3-4b53-b78e-6bf8a4511452 {
        fill: gray;
      }
    </style>
  </defs>
  <title>FB-Informatik-Logo_DE_written-out_rgb</title>
  <rect class="c3c9b207-93a3-4e55-964e-9bd97fb555b3" x="30.77536" y="10.2423" width="10.25475" height="20.5095"/>
  <g>
    <polygon class="166b73ff-e487-4e50-bd99-2703395be93b" points="14.193 22.375 12.314 20.497 14.193 18.619 14.193 14.18 18.13 14.18 18.13 10.242 10.255 10.242 10.255 17.708 7.466 20.497 10.255 23.286 10.255 30.752 18.13 30.752 18.13 26.814 14.193 26.814 14.193 22.375"/>
    <polygon class="166b73ff-e487-4e50-bd99-2703395be93b" points="30.775 17.708 30.775 10.242 22.9 10.242 22.9 14.18 26.837 14.18 26.837 18.619 28.716 20.497 26.837 22.375 26.837 26.814 22.9 26.814 22.9 30.752 30.775 30.752 30.775 23.286 33.565 20.497 30.775 17.708"/>
    <rect class="d9eb2d5e-81f3-4b53-b78e-6bf8a4511452" x="17.78145" y="17.76352" width="5.46711" height="5.46711" transform="translate(20.50233 -8.50285) rotate(45)"/>
  </g>
  <g>
    <path d="M42.83017,26.81383H41.03V14.18207h1.80014Z"/>
    <path d="M47.14818,19.01161a3.64854,3.64854,0,0,1,3.18106-1.62875A3.10158,3.10158,0,0,1,53.53,19.63672a9.73216,9.73216,0,0,1,.2466,2.85926v4.31785H52.05293v-4.1662a8.12206,8.12206,0,0,0-.15166-2.29209,1.91352,1.91352,0,0,0-1.95055-1.51408,2.54682,2.54682,0,0,0-2.44251,1.91233,8.53315,8.53315,0,0,0-.20837,2.67061v3.38943H45.57615V22.23089c-.0185-1.969-.05672-3.52259-.11344-4.67788h1.609Z"/>
    <path d="M61.58254,14.69376a4.43315,4.43315,0,0,0-.87171-.11344,1.41447,1.41447,0,0,0-1.49559.94692,6.20992,6.20992,0,0,0-.15166,1.609v.455h2.519v1.34394h-2.519v7.87866H57.33989V18.93517H55.16247V17.59123h2.17742V17.156a5.56,5.56,0,0,1,.49319-2.76554,2.64406,2.64406,0,0,1,2.49923-1.26873,4.904,4.904,0,0,1,1.25023.15166Z"/>
    <path d="M71.92834,22.26911a4.74452,4.74452,0,1,1-9.48768-.05672,4.74756,4.74756,0,1,1,9.48768.05672Zm-7.66906-.07644c0,2.064,1.212,3.50409,2.93447,3.50409,1.68546,0,2.9172-1.4586,2.9172-3.42765,0-2.1207-1.212-3.599-2.9172-3.599C65.48979,18.67008,64.25928,20.14841,64.25928,22.19267Z"/>
    <path d="M75.3542,17.553l.09494,1.64848A2.92159,2.92159,0,0,1,79.00872,17.553v1.572a1.97182,1.97182,0,0,0-.81376-.17015A2.49336,2.49336,0,0,0,75.80917,20.887a6.57411,6.57411,0,0,0-.20837,2.29086v3.636H73.87711V21.17054c0-.68183-.03822-1.89384-.11344-3.61753Z"/>
    <path d="M82.424,19.04983a3.095,3.095,0,0,1,2.916-1.667,2.64316,2.64316,0,0,1,2.72732,1.85562,3.22062,3.22062,0,0,1,3.04913-1.85562,2.81613,2.81613,0,0,1,2.85926,2.00727,8.71847,8.71847,0,0,1,.24659,2.55718v4.86652H92.49862V22.26911a8.3213,8.3213,0,0,0-.15165-2.14043,1.56216,1.56216,0,0,0-1.59053-1.28722A2.36677,2.36677,0,0,0,88.579,20.75379a6.81553,6.81553,0,0,0-.17139,2.14044v3.9196H86.68518V22.06074a7.9138,7.9138,0,0,0-.13316-1.95056,1.57624,1.57624,0,0,0-1.53382-1.26872,2.40366,2.40366,0,0,0-2.17742,1.66574,5.10345,5.10345,0,0,0-.26508,2.21564v4.091H80.852V21.58728c0-1.43887-.03823-2.519-.11344-4.03427H82.3291Z"/>
    <path d="M97.22858,18.23484a5.908,5.908,0,0,1,3.10462-.852,3.41446,3.41446,0,0,1,3.31421,1.704,5.87806,5.87806,0,0,1,.37976,2.65211v1.93083c0,1.44011.037,2.424.0937,3.14407h-1.572c-.01849-.36-.01849-.53018-.01849-.73855s0-.28358.01849-.852A3.314,3.314,0,0,1,99.44423,26.947c-1.95056,0-3.22052-1.09857-3.22052-2.784,0-1.95056,1.74342-3.04913,4.848-3.04913.36,0,.70156.01849,1.28846.05672-.0185-1.59053-.75705-2.32908-2.31059-2.32908a4.4942,4.4942,0,0,0-2.72732.9087Zm4.24141,4.1477c-2.27236,0-3.42765.5869-3.42765,1.76068,0,.85322.73855,1.44011,1.78041,1.44011a2.46437,2.46437,0,0,0,2.29085-1.34517,3.828,3.828,0,0,0,.28482-1.7989A7.12625,7.12625,0,0,0,101.47,22.38254Z"/>
    <path d="M109.145,17.59123h2.44375v1.34394H109.145v3.63725a9.73627,9.73627,0,0,0,.09494,1.8174,1.32376,1.32376,0,0,0,1.42038,1.07884,2.48771,2.48771,0,0,0,1.11707-.28358v1.47709a5.24119,5.24119,0,0,1-1.59053.26509,2.57445,2.57445,0,0,1-2.40552-1.212,5.71656,5.71656,0,0,1-.35879-2.63239v-4.1477h-2.14043V17.59123h2.14043v-2.1207l1.72245-.5869Z"/>
    <path d="M115.38748,15.33737h-1.87411V13.44353h1.87411Zm-.03822,11.47646H113.6268V17.553h1.72246Z"/>
    <path d="M119.82616,19.71194l-.03822.53017.01973.43647c-.03822.54867-.03822.54867-.03822.73855.15165-.18988.20837-.24659.3403-.39825.03822-.05672.13316-.13193.24659-.26509l.20837-.18987,3.01091-3.01091h2.31058l-4.31785,4.091,4.90474,5.16983h-2.424L120.905,23.40467c-.09371-.11343-.43524-.53017-.6621-.79526a2.465,2.465,0,0,0-.2466-.3218,1.91921,1.91921,0,0,0-.22686-.2466c.01849.15166.03822.60662.05671,1.40189v3.37093h-1.72369V13.17844h1.72369Z"/>
  </g>
</svg>
